# xmcd
#
# Track frame offsets:
#	150
#	23298
#	40966
#	56511
#	69721
#	79831
#	100193
#	114017
#	123259
#	140279
#	151821
#	169383
#	196284
#	208544
#	225718
#	244364
#	262412
#
# Disc length: 3716
#
# Revision: 1
# Processed by: cddbd v1.5.1PL0 Copyright (c) Steve Scherf et al.
# Submitted via: dBpowerAMP V4.0
# Normalized: r0:TDELIM( - )
#
DISCID=e50e8211
DTITLE=Various Artist - Mega Christmas Hits
DYEAR=1900
DGENRE=Christmas
TTITLE0=Boney M - Mary's boy Child
TTITLE1=Gerard Joling - Driving home for Christmas
TTITLE2=Kenny Rogers - When i fall in Love
TTITLE3=Jona Lewie - Stop the cavalry
TTITLE4=Dean Martin - Rudolph
TTITLE5=Marga Bult - Happy new Year
TTITLE6=José feliciano - Feliz Navidad
TTITLE7=The Ritz Brothers - Christmas in Amsterdam
TTITLE8=Mac and Katie Kissoon - Love and understanding
TTITLE9=Frank Sinatra - Santa Claus
TTITLE10=Emmy Verhey - Avé Maria
TTITLE11=Vanessa Bell Armstrong - Joy to the World
TTITLE12=Lee Towers - Wonderfull Time
TTITLE13=Harry belafonte - 12 days of Christmas
TTITLE14=Doug Ashdown - Winter in America
TTITLE15=The strawberries - Ruby
TTITLE16=Justine - Christmas without you
EXTD=
EXTT0=
EXTT1=
EXTT2=
EXTT3=
EXTT4=
EXTT5=
EXTT6=
EXTT7=
EXTT8=
EXTT9=
EXTT10=
EXTT11=
EXTT12=
EXTT13=
EXTT14=
EXTT15=
EXTT16=
PLAYORDER=
